<svg width="156" height="136" viewBox="0 0 156 136" fill="none" xmlns="http://www.w3.org/2000/svg">
<g clip-path="url(#clip0)">
<path d="M110.013 31.8134C110.013 15.2984 96.8775 1.91554 80.6677 1.91554V49.9333C86.2827 49.9333 90.9576 53.9973 91.9993 59.4074C102.594 54.8774 110.013 44.2384 110.013 31.8134Z" stroke="#6C21DF" stroke-width="3" stroke-miterlimit="10"/>
<path d="M80.6677 49.9333V61.7112C84.6821 61.7112 88.5185 60.8829 91.9993 59.4074C90.9576 53.9973 86.2827 49.9333 80.6677 49.9333Z" fill="#6C21DF" stroke="#6C21DF" stroke-width="3" stroke-miterlimit="10"/>
<path d="M89.0774 37.8965C90.6209 37.8965 91.8722 36.6216 91.8722 35.0491C91.8722 33.4765 90.6209 32.2016 89.0774 32.2016C87.5339 32.2016 86.2826 33.4765 86.2826 35.0491C86.2826 36.6216 87.5339 37.8965 89.0774 37.8965Z" stroke="#6C21DF" stroke-width="3" stroke-miterlimit="10"/>
<path d="M80.7184 1.99319H80.693C80.693 18.8965 93.6252 32.7194 109.987 33.7548C110.013 33.1335 110.038 32.5123 110.038 31.8651C110.013 15.376 96.9028 1.99319 80.7184 1.99319Z" stroke="#6C21DF" stroke-width="3" stroke-miterlimit="10"/>
<path d="M110.013 59.4074V84.4387C110.013 89.4605 106.024 93.5245 101.095 93.5245H92.0247V59.4074" stroke="#6C21DF" stroke-width="3" stroke-miterlimit="10"/>
<path d="M101.095 93.5245H136.995V88.5804C136.995 80.6594 130.694 74.2398 122.92 74.2398H110.013" stroke="#6C21DF" stroke-width="3" stroke-miterlimit="10"/>
<path d="M109.886 29.0695C126.477 43.6172 136.97 65.154 136.97 89.2275" stroke="#6C21DF" stroke-width="3" stroke-miterlimit="10"/>
<path d="M136.843 84.6458H147.87C151.605 84.6458 154.628 87.7262 154.628 91.5313V93.5504H136.995" stroke="#6C21DF" stroke-width="3" stroke-miterlimit="10"/>
<path d="M75.3323 54.6444V49.9333V1.91554C59.1226 1.91554 45.9871 15.2984 45.9871 31.8134C45.9871 44.2384 53.406 54.8774 64.0007 59.3815C65.4235 60.0027 66.9226 60.4946 68.447 60.857C68.8535 57.3624 71.7753 54.6444 75.3323 54.6444Z" stroke="#00DA9F" stroke-width="3" stroke-miterlimit="10"/>
<path d="M75.3322 54.6444C71.7752 54.6444 68.8534 57.3624 68.4469 60.8828C70.6573 61.4264 72.9694 61.7112 75.3322 61.7112V54.6444Z" fill="#00DA9F" stroke="#00DA9F" stroke-width="3" stroke-miterlimit="10"/>
<path d="M67.075 13.2275C70.1746 14.1594 72.9694 15.7643 75.3323 17.861V2.12262C71.0131 4.14169 67.8372 8.28338 67.075 13.2275Z" stroke="#00DA9F" stroke-width="3" stroke-miterlimit="10"/>
<path d="M66.8971 37.8965C68.4406 37.8965 69.6919 36.6216 69.6919 35.0491C69.6919 33.4765 68.4406 32.2016 66.8971 32.2016C65.3536 32.2016 64.1023 33.4765 64.1023 35.0491C64.1023 36.6216 65.3536 37.8965 66.8971 37.8965Z" stroke="#00DA9F" stroke-width="3" stroke-miterlimit="10"/>
<path d="M64.1532 93.5245H19.1825V88.5804C19.1825 80.6594 25.4835 74.2398 33.2581 74.2398H45.9871" stroke="#00DA9F" stroke-width="3" stroke-miterlimit="10"/>
<path d="M64.1531 59.3297C64.0769 59.3038 64.0007 59.2779 63.9244 59.2262C59.0463 57.1294 54.8287 53.7384 51.7036 49.4673C48.4007 44.9373 46.3173 39.4237 45.9616 33.4442C45.301 41.9346 40.9564 49.3897 34.5538 54.1267C34.2489 54.3597 33.9186 54.5926 33.5883 54.7997C26.6267 59.9768 22.1042 68.3638 22.1042 77.7861C22.1042 78.485 22.1297 79.158 22.1805 79.8311" stroke="#00DA9F" stroke-width="3" stroke-miterlimit="10"/>
<path d="M45.9871 59.4074V84.4387C45.9871 89.4605 49.976 93.5245 54.905 93.5245H63.9753V59.4074" stroke="#00DA9F" stroke-width="3" stroke-miterlimit="10"/>
<path d="M19.6549 87.2343C19.4135 86.9619 15.6588 79.1707 18.6089 69.2002C21.6127 59.039 24.8578 46.2898 20.2717 40.8959C17.5362 37.6541 14.3715 36.5644 10.59 37.5724C7.55947 38.3896 5.27984 40.2965 5.25302 40.3238C4.28754 41.141 2.86612 41.0048 2.06155 40.0514C1.25698 39.0707 1.36425 37.6268 2.32974 36.8096C2.43702 36.7006 5.27984 34.2761 9.27589 33.1864C13.1378 32.0967 18.7699 32.0422 23.7314 37.872C27.942 42.83 28.1834 51.4657 26.3597 59.938C25.9574 61.8449 25.421 63.7518 24.831 65.6043" stroke="#00DA9F" stroke-width="3" stroke-miterlimit="10"/>
<path d="M66.6938 53.1948L62.0951 45.8174" stroke="#00DA9F" stroke-width="3" stroke-miterlimit="10"/>
<path d="M69.7934 50.8133L67.0494 42.53" stroke="#00DA9F" stroke-width="3" stroke-miterlimit="10"/>
</g>
<g clip-path="url(#clip1)">
<path d="M11.8934 108.164C10.805 107.582 9.45934 107.291 7.8564 107.291H0V128.225H4.84841V120.72H7.8564C9.47913 120.72 10.8446 120.409 11.9528 119.806C13.0412 119.182 13.8724 118.371 14.3869 117.373C14.9212 116.376 15.1785 115.253 15.1785 114.047C15.1785 112.738 14.9014 111.573 14.3473 110.555C13.813 109.536 13.0016 108.746 11.8934 108.164ZM9.57808 115.981C9.12292 116.438 8.43029 116.667 7.50019 116.667H4.84841V111.407H7.4804C8.4105 111.407 9.10313 111.636 9.55829 112.093C10.0134 112.551 10.2311 113.195 10.2311 114.027C10.2509 114.879 10.0332 115.523 9.57808 115.981Z" fill="#6C21DF"/>
<path d="M23.3911 128.246H35.6012V124.151H28.2593V119.556H34.7503V115.627H28.2593V111.386H35.6012V107.291H23.3911V128.246Z" fill="#6C21DF"/>
<path d="M43.3586 111.386H48.6424V128.246H53.4908V111.386H58.7746V107.291H43.3586V111.386Z" fill="#6C21DF"/>
<path d="M78.4056 117.103C77.5943 116.687 76.5454 116.251 75.2591 115.794C73.9728 115.357 73.0229 114.941 72.4292 114.567C71.8158 114.193 71.5189 113.652 71.5189 112.987C71.5189 112.363 71.697 111.906 72.0533 111.573C72.4095 111.241 72.8844 111.075 73.4781 111.075C74.1509 111.075 74.7248 111.262 75.1602 111.657C75.5955 112.052 75.833 112.571 75.8726 113.257H81.1168C81.0178 111.282 80.3054 109.744 78.9597 108.642C77.6141 107.54 75.8528 106.979 73.6562 106.979C71.4992 106.979 69.7379 107.54 68.412 108.642C67.0663 109.744 66.3935 111.282 66.3935 113.216C66.3935 114.525 66.6903 115.586 67.2642 116.417C67.8579 117.228 68.5505 117.852 69.3619 118.267C70.1733 118.683 71.2221 119.099 72.5084 119.515C73.3989 119.785 74.0916 120.034 74.5665 120.263C75.0414 120.492 75.457 120.762 75.7934 121.095C76.1299 121.427 76.2882 121.864 76.2882 122.384C76.2882 123.007 76.0705 123.485 75.6549 123.839C75.2393 124.192 74.6655 124.358 73.953 124.358C73.2604 124.358 72.6865 124.151 72.2511 123.756C71.8158 123.34 71.5585 122.758 71.4794 121.989H66.3143C66.3539 123.361 66.7101 124.525 67.4027 125.502C68.0954 126.479 69.0255 127.206 70.1733 127.705C71.321 128.204 72.6271 128.454 74.0916 128.454C75.5955 128.454 76.8819 128.163 77.9901 127.581C79.0785 126.999 79.9294 126.229 80.5033 125.252C81.0772 124.275 81.3741 123.194 81.3741 122.009C81.3741 120.762 81.0772 119.723 80.5033 118.933C79.9096 118.143 79.217 117.54 78.4056 117.103Z" fill="#6C21DF"/>
<path d="M102.668 114.879C102.173 113.943 101.421 113.174 100.431 112.551C99.4221 111.927 98.2545 111.636 96.889 111.636C95.5038 111.636 94.257 111.989 93.129 112.675C92.001 113.361 91.1105 114.359 90.4773 115.606C89.8242 116.875 89.5076 118.33 89.5076 120.014C89.5076 121.656 89.8242 123.132 90.4773 124.421C91.1303 125.71 92.001 126.708 93.1092 127.435C94.2175 128.142 95.484 128.516 96.8495 128.516C98.1951 128.516 99.3627 128.204 100.392 127.581C101.401 126.957 102.173 126.167 102.687 125.211V128.246H105.28V111.885H102.668V114.879ZM101.975 123.277C101.5 124.192 100.867 124.899 100.055 125.398C99.244 125.876 98.3732 126.125 97.4036 126.125C96.4339 126.125 95.5631 125.876 94.7716 125.398C93.98 124.92 93.3467 124.213 92.8718 123.277C92.3968 122.363 92.1594 121.261 92.1594 120.014C92.1594 118.787 92.3968 117.706 92.8718 116.791C93.3467 115.877 93.98 115.191 94.7716 114.713C95.5631 114.234 96.4537 114.006 97.4036 114.006C98.3732 114.006 99.244 114.255 100.055 114.733C100.867 115.211 101.5 115.918 101.975 116.833C102.45 117.748 102.687 118.829 102.687 120.055C102.668 121.261 102.45 122.342 101.975 123.277Z" fill="#00DA9F"/>
<path d="M127.503 112.675C126.375 111.989 125.129 111.636 123.743 111.636C122.398 111.636 121.23 111.948 120.201 112.571C119.192 113.195 118.42 113.985 117.905 114.92V111.885H115.313V135.979H117.905V125.232C118.44 126.167 119.212 126.957 120.221 127.581C121.23 128.204 122.398 128.516 123.724 128.516C125.109 128.516 126.356 128.163 127.484 127.435C128.612 126.728 129.502 125.71 130.135 124.421C130.788 123.132 131.105 121.656 131.105 120.014C131.105 118.351 130.788 116.875 130.135 115.606C129.522 114.338 128.631 113.361 127.503 112.675ZM127.78 123.277C127.305 124.192 126.672 124.899 125.861 125.398C125.049 125.876 124.179 126.125 123.209 126.125C122.259 126.125 121.388 125.876 120.577 125.398C119.766 124.92 119.132 124.213 118.638 123.277C118.163 122.363 117.905 121.282 117.905 120.034C117.905 118.829 118.143 117.748 118.638 116.833C119.113 115.918 119.766 115.211 120.577 114.713C121.388 114.234 122.259 113.985 123.209 113.985C124.179 113.985 125.049 114.214 125.861 114.692C126.672 115.17 127.305 115.856 127.78 116.771C128.255 117.685 128.493 118.766 128.493 119.993C128.493 121.261 128.255 122.342 127.78 123.277Z" fill="#00DA9F"/>
<path d="M155.03 115.606C154.377 114.338 153.507 113.361 152.379 112.675C151.251 111.989 150.004 111.636 148.619 111.636C147.273 111.636 146.105 111.948 145.076 112.571C144.067 113.195 143.295 113.985 142.781 114.92V111.885H140.188V135.979H142.781V125.232C143.315 126.167 144.087 126.957 145.096 127.581C146.105 128.204 147.273 128.516 148.599 128.516C149.984 128.516 151.231 128.163 152.359 127.435C153.487 126.728 154.377 125.71 155.011 124.421C155.664 123.132 155.98 121.656 155.98 120.014C156 118.33 155.683 116.875 155.03 115.606ZM152.656 123.277C152.181 124.192 151.547 124.899 150.736 125.398C149.925 125.876 149.054 126.125 148.084 126.125C147.134 126.125 146.264 125.876 145.452 125.398C144.641 124.92 144.008 124.213 143.513 123.277C143.038 122.363 142.781 121.282 142.781 120.034C142.781 118.829 143.018 117.748 143.513 116.833C143.988 115.918 144.641 115.211 145.452 114.713C146.264 114.234 147.134 113.985 148.084 113.985C149.054 113.985 149.925 114.214 150.736 114.692C151.547 115.17 152.181 115.856 152.656 116.771C153.131 117.685 153.368 118.766 153.368 119.993C153.368 121.261 153.131 122.342 152.656 123.277Z" fill="#00DA9F"/>
</g>
<defs>
<clipPath id="clip0">
<rect width="156" height="95" fill="white"/>
</clipPath>
<clipPath id="clip1">
<rect width="156" height="29" fill="white" transform="translate(0 107)"/>
</clipPath>
</defs>
</svg>
